<svg version="1.1" id="Layer_1" xmlns="http://www.w3.org/2000/svg" xmlns:xlink="http://www.w3.org/1999/xlink" x="0px" y="0px"
	 width="100%" viewBox="0 0 1639 649" enable-background="new 0 0 1639 649" xml:space="preserve">
<path fill="#34A853" opacity="1.000000" stroke="none" 
	d="
M111.137825,444.978058 
	C117.163689,459.347961 123.382225,473.583405 132.621185,486.321594 
	C146.201462,505.045349 162.918716,520.093445 183.012207,531.607239 
	C198.020691,540.207275 214.083893,545.889099 230.949203,548.672729 
	C243.737518,550.783447 256.702087,551.714905 269.909058,550.261353 
	C284.031036,548.707031 298.108276,547.126587 311.252289,541.837646 
	C322.302673,537.391113 332.702423,531.327637 344.053589,525.988281 
	C366.826385,543.084778 388.957703,560.144836 411.028107,577.283325 
	C415.864014,581.038574 420.483093,585.073059 425.202026,588.978943 
	C414.972839,596.910400 405.265198,605.657288 394.405457,612.602783 
	C372.073273,626.885864 347.919464,637.367065 321.873901,642.947205 
	C312.278473,645.003052 302.529755,646.340637 292.861328,648.064087 
	C292.143951,648.192017 291.510773,648.792114 290.919220,649.586304 
	C268.979095,650.000000 246.958206,650.000000 224.571030,649.588135 
	C223.697372,648.811584 223.219772,648.181274 222.678329,648.120605 
	C204.009689,646.028137 185.960388,641.438416 168.334381,634.995544 
	C134.354187,622.574768 104.285118,603.780334 78.401970,578.633789 
	C68.393425,568.910095 59.027618,558.267151 50.883766,546.952698 
	C42.322926,535.058899 35.575111,521.860107 28.355677,509.099182 
	C56.163464,487.637207 83.650642,466.307648 111.137825,444.978058 
z"/>
<path fill="#575757" opacity="1.000000" stroke="none" 
	d="
M256.541931,1.000001 
	C259.984558,2.631513 262.819580,4.668588 265.976471,5.832822 
	C304.372772,19.993103 342.832825,33.980328 381.242554,48.104351 
	C411.921082,59.385445 442.555817,70.785530 473.199005,82.162354 
	C474.892426,82.791069 476.485352,83.690529 478.835510,84.799110 
	C476.860138,85.643150 475.379425,86.403191 473.818848,86.923698 
	C446.244293,96.120720 418.674255,105.331650 391.074585,114.452866 
	C346.363678,129.229050 301.644379,143.980270 256.875671,158.579620 
	C254.407654,159.384460 251.234787,159.402161 248.762711,158.615295 
	C207.831009,145.586533 166.969543,132.337296 126.064720,119.223656 
	C118.064827,116.658974 109.948662,114.456985 101.309479,111.751099 
	C96.794731,110.284752 92.856621,109.155029 88.582367,107.867599 
	C68.667336,101.393669 49.088455,95.077431 29.509577,88.761200 
	C38.084568,84.392708 46.681664,81.204987 55.213100,77.850288 
	C85.239937,66.043259 115.236237,54.158588 145.259262,42.341873 
	C176.365097,30.098984 207.503403,17.938381 238.577774,5.616389 
	C241.242966,4.559550 243.534760,2.561065 246.000000,1.000004 
	C249.361282,1.000000 252.722580,1.000000 256.541931,1.000001 
z"/>
<path fill="#FBBC05" opacity="1.000000" stroke="none" 
	d="
M1.000000,363.468658 
	C1.663546,362.379333 2.833909,361.819977 2.917499,361.129150 
	C6.106989,334.769104 13.735964,309.725403 25.023497,285.745026 
	C25.839970,284.010437 26.483665,282.194519 27.804726,280.392029 
	C35.239231,285.675903 42.065983,290.997986 48.916195,296.289734 
	C69.596329,312.265045 90.285583,328.228516 110.971283,344.196594 
	C108.958458,353.858307 106.740311,363.482910 104.986374,373.191376 
	C102.936775,384.536469 101.785728,395.969757 103.982193,407.466156 
	C106.320061,419.702637 108.670959,431.936615 111.076996,444.574890 
	C83.650642,466.307648 56.163464,487.637207 28.032791,508.913879 
	C14.979960,483.154419 5.967632,456.426880 2.916567,427.884094 
	C2.842968,427.195648 1.663624,426.625366 1.000007,426.000000 
	C1.000000,405.312439 1.000000,384.624878 1.000000,363.468658 
z"/>
<path fill="#4285F4" opacity="1.000000" stroke="none" 
	d="
M1640.000000,460.555878 
	C1639.322266,461.621948 1638.284912,462.121124 1638.024048,462.885254 
	C1636.099731,468.524872 1634.330200,474.217377 1632.512207,479.893036 
	C1629.378174,479.573395 1626.403076,479.573975 1623.573242,478.932983 
	C1601.762817,473.992584 1581.227783,493.718079 1580.060303,512.200378 
	C1579.382690,522.924744 1579.140991,533.687073 1579.043457,544.435303 
	C1578.883301,562.072144 1579.000000,579.711365 1579.000000,597.674377 
	C1569.679443,597.674377 1560.620605,597.674377 1551.278809,597.674377 
	C1551.278809,549.965881 1551.278809,502.253174 1551.278809,454.270081 
	C1560.103271,454.270081 1568.824951,454.270081 1577.918579,454.270081 
	C1577.918579,461.686798 1577.918579,468.917694 1577.918579,476.850342 
	C1588.903931,455.791687 1614.390015,443.922211 1639.597656,452.988953 
	C1640.000000,455.370575 1640.000000,457.741119 1640.000000,460.555878 
z"/>
<path fill="#4285F4" opacity="1.000000" stroke="none" 
	d="
M425.490479,588.840088 
	C420.483093,585.073059 415.864014,581.038574 411.028107,577.283325 
	C388.957703,560.144836 366.826385,543.084778 344.395996,525.860229 
	C350.053284,520.644531 356.511871,516.027039 361.921112,510.400726 
	C379.216370,492.411407 390.767609,471.196411 395.940399,446.664612 
	C396.141571,445.710541 395.966034,444.677032 395.966034,443.211853 
	C349.458557,443.211853 303.061310,443.211853 256.332886,443.211853 
	C256.332886,411.355865 256.332886,379.966797 256.332886,347.999908 
	C258.109650,347.999908 259.881927,347.999939 261.654205,347.999939 
	C337.980621,347.999939 414.307037,348.015198 490.633423,347.954956 
	C494.474640,347.951904 496.929199,347.949860 497.257477,353.205750 
	C497.959564,364.447815 499.710968,375.623291 500.988068,386.831146 
	C501.396698,390.417023 502.077057,394.035706 501.930786,397.610657 
	C500.979584,420.858368 499.552521,443.972015 494.264069,466.848785 
	C486.914124,498.643188 474.650299,528.146362 455.574005,554.482971 
	C446.737610,566.682434 435.776672,577.343018 425.490479,588.840088 
z"/>
<path fill="#EB4335" opacity="1.000000" stroke="none" 
	d="
M111.299408,343.992798 
	C90.285583,328.228516 69.596329,312.265045 48.916195,296.289734 
	C42.065983,290.997986 35.239231,285.675903 28.102528,280.196716 
	C35.982033,263.459778 45.661949,247.831512 57.755745,233.842453 
	C65.409943,224.988739 73.599091,216.597488 82.098648,208.173096 
	C82.764954,212.167664 82.940964,215.987259 82.986710,219.808426 
	C83.209915,238.452255 83.467110,257.096222 83.541016,275.740845 
	C83.555801,279.470337 84.926163,280.684662 88.573372,280.484894 
	C93.720360,280.202881 98.905830,280.124847 104.048584,280.418976 
	C108.311279,280.662750 109.375938,278.988007 109.319809,274.942352 
	C109.031128,254.133621 108.937401,233.321320 108.928040,212.510193 
	C108.925789,207.510391 108.657272,202.809616 103.475098,199.483170 
	C109.214165,196.070786 107.908218,190.922562 107.998199,186.165268 
	C109.473343,185.141861 110.911964,184.060272 112.430946,183.106720 
	C116.003227,180.864166 119.394882,178.866364 124.094589,178.874268 
	C166.785110,178.946136 205.778198,192.089340 242.355530,212.873947 
	C251.112503,217.850006 257.164856,218.541550 266.145599,213.050110 
	C291.886719,197.310165 320.081940,186.967972 349.501221,180.397995 
	C360.185364,178.012009 371.305817,177.641602 382.168457,175.969757 
	C388.456329,175.001984 392.777985,178.213852 397.235413,181.628586 
	C407.339142,189.368851 417.472839,197.070023 428.310364,205.333038 
	C403.361786,229.791779 379.312958,253.368423 355.681641,276.535736 
	C346.276917,270.051086 337.235931,263.385864 327.767517,257.396332 
	C315.526642,249.652985 301.910461,245.115112 287.825531,242.029541 
	C275.353333,239.297241 262.694977,238.491104 249.955627,239.010437 
	C230.979736,239.784042 212.844635,244.011276 195.469513,251.808243 
	C177.132843,260.036682 160.748459,271.088287 147.002731,285.657745 
	C131.147324,302.463287 118.984505,321.713776 111.299408,343.992798 
z"/>
<path fill="#4285F4" opacity="1.000000" stroke="none" 
	d="
M734.995605,230.153580 
	C734.663818,228.796432 734.058167,227.441986 734.044800,226.081680 
	C733.958008,217.271408 734.000305,208.459885 734.000305,199.325745 
	C768.662598,199.325745 803.052307,199.325745 837.639526,199.325745 
	C841.205505,224.125580 838.299805,247.953857 826.840210,270.348114 
	C820.423401,282.887848 810.295105,292.439362 799.276855,300.905273 
	C786.795166,310.495636 772.330200,316.466187 756.987427,318.614075 
	C745.013916,320.290253 732.612000,319.343964 720.422607,318.921753 
	C707.218323,318.464325 694.945068,314.117676 683.321106,308.035919 
	C662.819092,297.309052 646.551270,282.184357 635.287781,261.774261 
	C627.467468,247.603363 623.165405,232.588516 621.893738,216.423798 
	C619.793152,189.721848 627.105835,165.745621 642.441589,144.299423 
	C659.584290,120.326233 683.254333,105.386917 711.914001,99.353798 
	C725.312012,96.533409 739.098022,96.400352 753.045349,98.670250 
	C771.098755,101.608383 787.403870,108.116440 801.291199,119.504417 
	C813.178833,129.252579 815.252991,125.250488 802.916443,137.595673 
	C799.383240,141.131317 795.782776,144.603119 792.344177,148.228485 
	C790.537170,150.133652 789.246826,150.396042 786.941345,148.608521 
	C779.002686,142.453186 770.873108,136.699875 761.095337,133.432205 
	C748.885559,129.351730 736.702759,128.199631 723.899109,129.812363 
	C710.037292,131.558365 697.600220,136.554596 686.954529,145.128448 
	C670.350403,158.501236 659.775391,175.626709 656.905518,197.266785 
	C654.542725,215.083557 657.128113,231.700302 665.828430,247.513184 
	C675.205750,264.556335 688.781616,276.519409 706.927002,283.462799 
	C716.813110,287.245728 727.128052,289.325134 737.549377,288.841736 
	C759.664551,287.815735 779.144897,280.159393 793.664795,262.700134 
	C799.666992,255.482864 802.843384,246.685959 804.981628,237.578903 
	C805.425354,235.688950 805.650024,233.747559 805.664673,231.080872 
	C794.903259,230.257706 784.452759,230.183502 773.534729,230.073029 
	C760.376648,230.075714 747.686096,230.114639 734.995605,230.153580 
z"/>
<path fill="#4285F4" opacity="1.000000" stroke="none" 
	d="
M1170.691162,288.264954 
	C1161.382202,273.694885 1157.474609,257.939880 1159.158691,241.288940 
	C1160.966064,223.419189 1168.343384,207.620941 1181.467285,195.130707 
	C1191.146484,185.918961 1202.737183,179.255478 1216.002075,177.220703 
	C1233.535034,174.531204 1249.566284,176.391754 1265.705322,190.942612 
	C1265.705322,187.186646 1265.705322,183.861740 1265.705322,180.259521 
	C1276.304077,180.259521 1286.377319,180.259521 1297.000000,180.259521 
	C1297.000000,182.119217 1297.000000,183.894974 1297.000122,185.670731 
	C1297.000732,230.500000 1297.836548,275.350983 1296.672852,320.149994 
	C1296.026611,345.030670 1285.146484,365.905151 1261.737793,377.528046 
	C1247.630737,384.532593 1232.250854,385.389099 1216.645996,383.080536 
	C1192.963013,379.576935 1177.254761,365.599060 1166.119873,345.401703 
	C1164.678345,342.786804 1164.247925,341.141937 1168.261841,339.713745 
	C1176.483276,336.788422 1184.333740,332.820984 1192.851929,329.054993 
	C1198.439941,340.979980 1206.927368,350.272858 1220.111572,353.856720 
	C1228.858521,356.234406 1237.731934,354.985016 1245.935791,351.441040 
	C1260.113892,345.316254 1267.891113,329.678253 1265.638428,304.984802 
	C1252.982666,318.426300 1237.039795,321.673035 1220.101807,319.785675 
	C1198.895996,317.422729 1182.937012,305.871979 1170.691162,288.264954 
M1267.993408,240.942596 
	C1265.524048,234.672028 1263.908081,227.872360 1260.413940,222.237152 
	C1252.255005,209.078003 1237.850098,203.178802 1222.713135,206.782425 
	C1199.008667,212.425583 1188.078247,237.092728 1193.062134,258.981750 
	C1195.064575,267.776337 1199.158325,275.671112 1206.060425,281.294800 
	C1214.988037,288.568878 1225.151489,292.508179 1237.288940,290.118683 
	C1250.134399,287.589813 1258.344971,279.973083 1263.976440,268.755585 
	C1268.261841,260.219208 1268.326660,251.077209 1267.993408,240.942596 
z"/>
<path fill="#4285F4" opacity="1.000000" stroke="none" 
	d="
M740.264160,433.356018 
	C736.630859,434.808441 733.287292,435.991699 729.722290,437.253326 
	C724.923828,423.877930 715.737915,415.629974 702.315857,411.664978 
	C686.692383,407.049744 667.116150,413.557434 658.855530,425.344299 
	C649.566223,438.598907 655.556824,455.898560 668.861328,461.869751 
	C683.176086,468.294373 697.758606,474.140869 712.344421,479.937592 
	C724.846680,484.906311 736.694336,490.798431 746.156433,500.658478 
	C754.380127,509.227905 759.401672,519.221802 761.122314,531.135437 
	C762.853333,543.121094 761.902161,554.483582 757.151428,565.705200 
	C752.456238,576.795959 744.805542,584.916321 734.646606,591.106812 
	C718.379761,601.019287 700.531799,603.487915 682.087646,601.855530 
	C667.691895,600.581360 655.120483,594.358887 643.731812,585.362610 
	C630.496338,574.907471 623.323120,560.872620 618.093933,545.024658 
	C627.015015,541.390076 635.781128,537.818604 643.558838,534.649841 
	C648.133850,542.576904 652.028870,550.648499 657.140137,557.857727 
	C664.018677,567.559509 673.903442,572.957153 685.717957,575.065674 
	C698.082336,577.272339 709.395020,574.702820 719.702454,568.004944 
	C737.200745,556.634521 738.978394,529.853333 720.536621,516.705200 
	C709.590332,508.901001 697.089172,505.143555 685.058044,500.044464 
	C674.200562,495.442841 662.891235,491.642914 652.635498,485.950409 
	C638.722107,478.227661 629.813904,466.239594 626.923462,450.025146 
	C622.333191,424.274872 634.406006,404.369995 655.480652,392.219940 
	C670.635193,383.482971 687.014221,382.865082 703.970032,384.809662 
	C718.224365,386.444366 730.048401,392.934662 740.299255,402.103363 
	C747.532898,408.573456 753.372620,416.602631 755.622437,426.693115 
	C750.693054,428.784698 745.623413,430.935791 740.264160,433.356018 
z"/>
<path fill="#FBBC05" opacity="1.000000" stroke="none" 
	d="
M996.000488,400.016083 
	C996.000488,424.092621 996.000488,447.672638 996.000488,470.541809 
	C998.786438,468.018311 1002.310608,464.596161 1006.075378,461.463104 
	C1014.435425,454.505615 1024.003784,450.717865 1034.970337,449.910950 
	C1049.473267,448.843872 1063.026489,450.667877 1075.153564,459.524780 
	C1084.878784,466.627533 1090.220093,476.410339 1092.872192,487.714874 
	C1094.241821,493.553619 1094.866943,499.688782 1094.909058,505.696472 
	C1095.111328,534.514893 1094.999512,563.335510 1094.999390,592.155396 
	C1094.999390,593.946716 1094.999390,595.738037 1094.999390,597.761658 
	C1085.651489,597.761658 1076.709595,597.761658 1067.000244,597.761658 
	C1067.000244,596.143799 1067.000244,594.400085 1067.000244,592.656372 
	C1067.000122,564.003113 1067.123047,535.348999 1066.925415,506.697083 
	C1066.865601,498.034363 1064.233521,489.920166 1058.011108,483.589600 
	C1047.477417,472.872925 1026.001953,471.847656 1014.281189,481.222534 
	C1002.075256,490.985474 995.838379,503.500427 995.950134,519.304871 
	C996.133850,545.287537 995.999939,571.272461 995.999939,597.628174 
	C986.836243,597.628174 977.772217,597.628174 968.352356,597.628174 
	C968.352356,528.113342 968.352356,458.407959 968.352356,388.351044 
	C977.235229,388.351044 986.296143,388.351044 996.000488,388.351044 
	C996.000488,391.990173 996.000488,395.754852 996.000488,400.016083 
z"/>
<path fill="#EA4335" opacity="1.000000" stroke="none" 
	d="
M1455.199951,599.340820 
	C1431.718994,605.221191 1410.341675,602.637024 1393.228516,584.523438 
	C1383.156860,573.862915 1379.652466,560.834473 1381.753540,545.984497 
	C1383.226196,535.575684 1387.237061,526.905212 1394.742920,519.802246 
	C1402.428833,512.528809 1411.829102,508.225372 1422.018921,506.166656 
	C1439.677368,502.598999 1457.276367,503.076965 1474.485229,509.016296 
	C1476.768311,509.804321 1478.938354,510.920288 1481.609375,512.078979 
	C1483.014526,503.638092 1480.769897,496.096161 1476.065552,489.838379 
	C1468.119629,479.268372 1457.075073,473.550781 1443.675903,474.106384 
	C1430.713745,474.643890 1420.192505,480.539124 1412.005859,490.675751 
	C1411.182007,491.695953 1408.771606,492.754211 1408.000366,492.290985 
	C1401.156006,488.180725 1394.466064,483.803009 1387.878662,479.288177 
	C1387.080811,478.741302 1386.461792,476.390533 1386.936279,475.757294 
	C1396.966187,462.373566 1410.164185,453.924347 1426.717651,451.011749 
	C1442.097778,448.305634 1457.381958,448.521454 1472.163574,454.019989 
	C1491.281372,461.131409 1503.279419,474.600037 1506.950806,494.914154 
	C1507.677734,498.936981 1507.943726,503.091919 1507.955933,507.187317 
	C1508.039673,535.511963 1508.000000,563.836975 1508.000000,592.161865 
	C1508.000000,593.947937 1508.000000,595.733948 1508.000000,597.756226 
	C1499.244019,597.756226 1490.979736,597.756226 1482.112305,597.756226 
	C1482.112305,591.406189 1482.112305,585.055603 1482.112305,578.704956 
	C1474.835693,588.052490 1466.481323,595.236511 1455.199951,599.340820 
M1418.030518,536.459961 
	C1404.357666,548.532715 1408.233521,567.758789 1425.150146,574.415588 
	C1429.879272,576.276550 1435.353027,576.693604 1440.521362,576.909485 
	C1458.596191,577.664490 1476.129639,561.934998 1480.737793,545.084900 
	C1481.709595,541.532104 1484.544678,536.870850 1478.069092,533.893494 
	C1457.755981,524.553894 1437.971436,522.910034 1418.030518,536.459961 
z"/>
<path fill="#FBBC05" opacity="1.000000" stroke="none" 
	d="
M1012.701782,282.275269 
	C1007.957703,272.849609 1005.424866,263.379059 1004.784790,253.053497 
	C1003.981140,240.087830 1005.752136,227.763931 1011.429932,216.309937 
	C1021.421448,196.153992 1037.548584,182.994492 1059.624756,178.106888 
	C1082.594849,173.021362 1104.239380,177.251205 1122.840820,191.612213 
	C1136.505859,202.162262 1144.962891,216.812347 1147.947754,234.073181 
	C1151.197021,252.862534 1148.672119,270.836426 1138.340942,287.119720 
	C1127.074829,304.876404 1110.934570,315.636963 1090.043091,319.005402 
	C1072.942505,321.762634 1056.503784,319.918396 1041.163696,311.498810 
	C1028.861084,304.746399 1019.039246,295.444763 1012.701782,282.275269 
M1115.998657,250.414581 
	C1117.075806,236.227600 1112.127075,224.573105 1101.585449,215.044403 
	C1089.504028,204.123871 1070.698853,202.918457 1057.140747,211.357895 
	C1047.067261,217.628235 1041.045044,226.624969 1038.309570,238.151840 
	C1035.487671,250.043121 1037.171021,261.612244 1043.480957,271.439301 
	C1052.380981,285.300018 1065.234131,292.421356 1082.801636,290.186584 
	C1101.346680,287.827545 1116.402832,268.270691 1115.998657,250.414581 
z"/>
<path fill="#EA4335" opacity="1.000000" stroke="none" 
	d="
M889.634277,183.720734 
	C898.112244,179.390945 906.689941,177.610001 915.863770,176.773178 
	C933.026306,175.207596 948.836609,178.542282 962.900757,188.093079 
	C982.297852,201.265472 992.898071,219.588898 994.162476,243.509766 
	C995.156616,262.317444 990.448486,278.920319 979.043762,293.752197 
	C969.700256,305.903351 957.335571,313.708099 942.716614,317.552856 
	C924.734436,322.282104 906.850464,321.344940 889.916687,313.243591 
	C876.984985,307.056824 866.510803,297.784027 859.545166,285.041260 
	C854.995483,276.718262 851.890442,268.076813 850.715820,258.363556 
	C848.467896,239.774918 851.775208,222.753448 862.008423,207.244537 
	C868.802429,196.947815 877.659363,188.712784 889.634277,183.720734 
M904.615601,209.922989 
	C883.448792,221.873474 877.350586,247.787323 887.682861,269.262573 
	C893.882935,282.149170 910.384766,293.062714 927.412476,290.225769 
	C940.514587,288.042877 949.790894,281.241180 956.096802,270.293884 
	C962.484741,259.204407 963.561707,247.035995 959.815491,234.798538 
	C955.946411,222.160156 947.974426,212.916122 935.358215,208.173309 
	C925.147278,204.334763 915.083801,205.403152 904.615601,209.922989 
z"/>
<path fill="#EA4335" opacity="1.000000" stroke="none" 
	d="
M1489.687500,287.336395 
	C1485.251587,296.195526 1478.401978,302.618378 1470.516724,308.146332 
	C1455.924561,318.376068 1439.475830,321.312195 1422.224243,319.879547 
	C1407.078247,318.621735 1393.472656,313.280334 1382.018311,302.669647 
	C1372.556519,293.904877 1365.479736,283.876099 1361.783081,271.487091 
	C1358.066284,259.031006 1357.209595,246.536880 1359.637573,233.638016 
	C1361.451538,224.002045 1364.187378,214.858887 1369.726196,206.784744 
	C1381.365234,189.818588 1396.788452,179.067963 1417.863525,176.865646 
	C1430.082275,175.588806 1441.550903,176.918472 1452.767090,181.904358 
	C1467.109253,188.279846 1476.733643,199.287735 1483.916016,212.771561 
	C1486.134888,216.937210 1487.839111,221.374130 1489.968018,225.591446 
	C1491.733643,229.088760 1491.185303,231.464050 1487.377686,232.976776 
	C1477.396729,236.942154 1467.425293,240.933853 1457.494751,245.023422 
	C1439.010864,252.635223 1420.559326,260.325531 1402.092529,267.978516 
	C1400.176758,268.772430 1398.248291,269.535248 1396.307983,270.319672 
	C1410.296875,296.987518 1446.494385,298.209778 1464.760864,270.696442 
	C1472.995605,276.137299 1481.240112,281.584564 1489.687500,287.336395 
M1413.732910,235.098206 
	C1425.907471,230.074905 1438.109741,225.115875 1450.189453,219.874023 
	C1450.940796,219.547989 1451.494263,216.333435 1450.846558,215.591202 
	C1444.164917,207.934921 1435.395386,204.547760 1425.434082,205.161804 
	C1418.202393,205.607574 1411.543579,208.535660 1405.846558,213.094299 
	C1395.850220,221.093109 1390.807495,231.490921 1391.012695,244.981873 
	C1398.704956,241.666962 1405.878174,238.575806 1413.732910,235.098206 
z"/>
<path fill="#4285F4" opacity="1.000000" stroke="none" 
	d="
M1235.549561,596.776489 
	C1223.020386,601.697876 1210.321655,602.958923 1197.449097,601.936035 
	C1177.259888,600.331909 1160.806763,591.544434 1147.872681,575.782410 
	C1139.362915,565.411987 1134.037720,553.582397 1132.404785,540.610779 
	C1129.213379,515.257507 1133.059204,491.573059 1151.485352,471.871033 
	C1162.672119,459.909546 1176.230347,452.629761 1192.107056,450.174133 
	C1210.875610,447.271240 1229.354736,449.782471 1245.314697,460.283844 
	C1264.084351,472.634003 1275.459961,490.275116 1278.141479,513.266357 
	C1280.061279,529.727478 1279.051758,545.598083 1271.996460,560.680847 
	C1264.375122,576.973145 1252.077393,588.789734 1235.549561,596.776489 
M1249.993042,512.692627 
	C1249.672852,511.775787 1249.267700,510.879028 1249.045410,509.939056 
	C1245.580078,495.282623 1236.546143,484.952637 1223.202515,478.807922 
	C1200.579834,468.390167 1175.844238,479.034302 1165.127563,499.930511 
	C1159.595093,510.718018 1158.059814,522.299316 1159.811768,534.602112 
	C1161.495850,546.428711 1165.822632,556.873779 1174.456055,564.655090 
	C1187.567383,576.472595 1203.080933,580.318176 1220.244385,574.296082 
	C1235.040039,569.104736 1244.199951,558.188782 1248.795532,543.740417 
	C1251.889771,534.012695 1252.134766,523.731262 1249.993042,512.692627 
z"/>
<path fill="#EA4335" opacity="1.000000" stroke="none" 
	d="
M888.716553,452.041321 
	C907.907043,458.481750 921.805664,470.378052 930.126160,488.537384 
	C930.521301,489.399841 930.777588,490.325897 931.141296,491.341614 
	C922.826721,494.824982 914.737671,498.213837 906.656738,501.599335 
	C903.070068,496.545898 899.955627,490.931519 895.698242,486.388062 
	C882.564331,472.371552 857.445068,470.943542 842.304138,483.134888 
	C825.474609,496.685913 820.031982,514.148254 822.822937,535.103333 
	C824.313660,546.296509 828.784119,555.966614 836.481689,563.766479 
	C847.857056,575.292847 861.751282,579.506042 877.858948,575.593811 
	C890.622070,572.493835 899.683105,565.073608 905.337524,553.310059 
	C905.892822,552.154846 906.705383,551.123291 907.502991,549.870178 
	C915.733887,553.391724 923.775940,556.832520 932.163940,560.421265 
	C924.959473,577.735657 913.534668,590.351318 895.970459,597.080811 
	C875.289246,605.004456 854.672668,604.298462 834.830933,595.163208 
	C818.465393,587.628357 806.957825,574.645447 800.077148,557.891663 
	C795.142029,545.875122 793.085632,533.183960 794.135742,520.325195 
	C795.509888,503.498688 800.191406,487.822815 811.734619,474.598419 
	C824.934875,459.475647 841.099304,451.389893 861.131226,449.800995 
	C870.464111,449.060760 879.323181,450.356995 888.716553,452.041321 
z"/>
<path fill="#34A853" opacity="1.000000" stroke="none" 
	d="
M1314.527588,315.452850 
	C1314.125732,313.454895 1313.993896,311.793640 1313.993530,310.132385 
	C1313.983154,243.981384 1313.984619,177.830368 1313.984619,111.679367 
	C1313.984619,110.035431 1313.984741,108.391495 1313.984741,106.374863 
	C1324.699585,106.374863 1335.068848,106.374863 1345.720337,106.374863 
	C1345.720337,176.126953 1345.720337,245.698456 1345.720337,315.789551 
	C1335.369385,315.789551 1325.114136,315.789551 1314.527588,315.452850 
z"/>
<path fill="#34A753" opacity="1.000000" stroke="none" 
	d="
M1345.817627,386.058594 
	C1345.871460,397.380768 1345.968750,408.702911 1345.971924,420.025085 
	C1345.987793,477.149689 1345.979248,534.274292 1345.979248,591.398865 
	C1345.979248,593.357788 1345.979248,595.316650 1345.979248,597.923889 
	C1335.721069,597.923889 1325.952515,597.923889 1315.643311,597.469849 
	C1315.080688,526.703308 1315.058716,456.390717 1315.501709,386.054871 
	C1325.917114,386.040619 1335.867310,386.049591 1345.817627,386.058594 
z"/>
<path fill="#FDDA75" opacity="1.000000" stroke="none" 
	d="
M107.674133,186.015472 
	C107.908218,190.922562 109.214165,196.070786 103.475098,199.483170 
	C108.657272,202.809616 108.925789,207.510391 108.928040,212.510193 
	C108.937401,233.321320 109.031128,254.133621 109.319809,274.942352 
	C109.375938,278.988007 108.311279,280.662750 104.048584,280.418976 
	C98.905830,280.124847 93.720360,280.202881 88.573372,280.484894 
	C84.926163,280.684662 83.555801,279.470337 83.541016,275.740845 
	C83.467110,257.096222 83.209915,238.452255 82.986710,219.808426 
	C82.940964,215.987259 82.764954,212.167664 82.395248,207.976013 
	C83.487816,204.783920 84.834114,201.963165 86.256912,198.982132 
	C79.909889,193.900528 80.700523,187.168579 87.643143,181.991180 
	C88.596375,181.280319 88.939583,179.258850 88.944206,177.842117 
	C89.019127,154.879700 88.993637,131.916946 88.954697,108.489784 
	C92.856621,109.155029 96.794731,110.284752 100.937332,111.732216 
	C101.094833,126.314980 100.925613,140.581070 101.048492,154.844635 
	C101.117897,162.901627 101.279602,171.000824 102.232536,178.981567 
	C102.526657,181.444839 105.567085,183.580185 107.674133,186.015472 
z"/>
<path fill="#494949" opacity="1.000000" stroke="none" 
	d="
M1315.036865,386.078156 
	C1315.058716,456.390717 1315.080688,526.703308 1315.192139,597.472046 
	C1314.854858,596.340881 1314.055664,594.753784 1314.054321,593.165955 
	C1314.000366,524.372437 1314.017212,455.578827 1314.286865,386.376190 
	C1314.711304,386.004150 1314.874146,386.041138 1315.036865,386.078156 
z"/>
<path fill="#00FFFF" opacity="1.000000" stroke="none" 
	d="
M735.224731,230.516785 
	C747.686096,230.114639 760.376648,230.075714 773.534058,230.253662 
	C774.000916,230.470535 773.999878,230.833359 773.999878,230.833359 
	C761.151245,230.848892 748.302551,230.864441 735.224731,230.516785 
z"/>
<path fill="#0000FF" opacity="1.000000" stroke="none" 
	d="
M774.463745,230.902496 
	C773.999878,230.833359 774.000916,230.470535 774.001587,230.289917 
	C784.452759,230.183502 794.903259,230.257706 805.593994,230.666473 
	C795.532104,230.991257 785.229858,230.981445 774.463745,230.902496 
z"/>
<path fill="#448759" opacity="1.000000" stroke="none" 
	d="
M1315.501831,386.054871 
	C1314.874146,386.041138 1314.711304,386.004150 1314.307495,385.897095 
	C1318.084595,385.552307 1322.100952,385.084106 1326.121338,385.047089 
	C1332.550781,384.987854 1338.982910,385.214813 1345.615723,385.689697 
	C1335.867310,386.049591 1325.917114,386.040619 1315.501831,386.054871 
z"/>

</svg>